<mxfile host="app.diagrams.net" modified="2023-06-06T18:32:24.053Z" agent="Mozilla/5.0 (Macintosh; Intel Mac OS X 10.15; rv:109.0) Gecko/20100101 Firefox/113.0" etag="YMc5fE49z6Pfx0SQIiJS" version="21.1.1" type="github">
  <diagram id="Gjh91Je4ySEMAI1Sj-sg" name="Page-1">
    <mxGraphModel dx="1716" dy="1036" grid="1" gridSize="10" guides="1" tooltips="1" connect="1" arrows="1" fold="1" page="1" pageScale="1" pageWidth="850" pageHeight="1100" math="0" shadow="0">
      <root>
        <mxCell id="0" />
        <mxCell id="1" parent="0" />
        <mxCell id="DnQ4--VGCIlJsh_Cb7lD-1" value="conference papers" style="rounded=0;whiteSpace=wrap;html=1;" parent="1" vertex="1">
          <mxGeometry x="145" y="740" width="120" height="60" as="geometry" />
        </mxCell>
        <mxCell id="DnQ4--VGCIlJsh_Cb7lD-2" value="assisting in&amp;nbsp;" style="rounded=0;whiteSpace=wrap;html=1;" parent="1" vertex="1">
          <mxGeometry x="620" y="740" width="120" height="60" as="geometry" />
        </mxCell>
        <mxCell id="DnQ4--VGCIlJsh_Cb7lD-3" value="&lt;p style=&quot;border-color: var(--border-color);&quot; class=&quot;MsoNormal&quot;&gt;internal papers&lt;span style=&quot;background-color: initial;&quot;&gt;&amp;nbsp;&lt;/span&gt;&lt;/p&gt;" style="rounded=0;whiteSpace=wrap;html=1;align=center;" parent="1" vertex="1">
          <mxGeometry x="305" y="740" width="110" height="60" as="geometry" />
        </mxCell>
        <mxCell id="DnQ4--VGCIlJsh_Cb7lD-4" value="&amp;nbsp;workshops" style="rounded=0;whiteSpace=wrap;html=1;" parent="1" vertex="1">
          <mxGeometry x="460" y="740" width="120" height="60" as="geometry" />
        </mxCell>
        <mxCell id="DnQ4--VGCIlJsh_Cb7lD-5" value="Institute types" style="rounded=0;whiteSpace=wrap;html=1;" parent="1" vertex="1">
          <mxGeometry x="1145" y="40" width="160" height="80" as="geometry" />
        </mxCell>
        <mxCell id="DnQ4--VGCIlJsh_Cb7lD-6" value="related &amp;nbsp;Information&lt;br/&gt;of member&amp;nbsp;" style="rounded=0;whiteSpace=wrap;html=1;" parent="1" vertex="1">
          <mxGeometry x="230" y="1800" width="120" height="60" as="geometry" />
        </mxCell>
        <mxCell id="DnQ4--VGCIlJsh_Cb7lD-16" value="" style="endArrow=none;html=1;rounded=0;entryX=0.017;entryY=0.419;entryDx=0;entryDy=0;exitX=0.5;exitY=0;exitDx=0;exitDy=0;entryPerimeter=0;" parent="1" source="DnQ4--VGCIlJsh_Cb7lD-3" target="4cyTBoL2mbChuSqTaiiy-3" edge="1">
          <mxGeometry width="50" height="50" relative="1" as="geometry">
            <mxPoint x="340" y="915" as="sourcePoint" />
            <mxPoint x="425" y="635" as="targetPoint" />
          </mxGeometry>
        </mxCell>
        <mxCell id="DnQ4--VGCIlJsh_Cb7lD-17" value="" style="endArrow=none;html=1;rounded=0;exitX=1;exitY=0.5;exitDx=0;exitDy=0;entryX=0.5;entryY=1;entryDx=0;entryDy=0;" parent="1" source="4cyTBoL2mbChuSqTaiiy-3" target="DnQ4--VGCIlJsh_Cb7lD-41" edge="1">
          <mxGeometry width="50" height="50" relative="1" as="geometry">
            <mxPoint x="340" y="685" as="sourcePoint" />
            <mxPoint x="430" y="610" as="targetPoint" />
          </mxGeometry>
        </mxCell>
        <mxCell id="DnQ4--VGCIlJsh_Cb7lD-18" value="" style="endArrow=none;html=1;rounded=0;entryX=0;entryY=0.25;entryDx=0;entryDy=0;exitX=0.5;exitY=0;exitDx=0;exitDy=0;" parent="1" source="DnQ4--VGCIlJsh_Cb7lD-1" target="4cyTBoL2mbChuSqTaiiy-3" edge="1">
          <mxGeometry width="50" height="50" relative="1" as="geometry">
            <mxPoint x="350" y="695" as="sourcePoint" />
            <mxPoint x="425" y="635" as="targetPoint" />
            <Array as="points" />
          </mxGeometry>
        </mxCell>
        <mxCell id="DnQ4--VGCIlJsh_Cb7lD-19" value="" style="endArrow=none;html=1;rounded=0;entryX=0.5;entryY=0;entryDx=0;entryDy=0;exitX=0;exitY=0.75;exitDx=0;exitDy=0;" parent="1" target="DnQ4--VGCIlJsh_Cb7lD-2" edge="1" source="4cyTBoL2mbChuSqTaiiy-3">
          <mxGeometry width="50" height="50" relative="1" as="geometry">
            <mxPoint x="460" y="560" as="sourcePoint" />
            <mxPoint x="455" y="665" as="targetPoint" />
            <Array as="points" />
          </mxGeometry>
        </mxCell>
        <mxCell id="DnQ4--VGCIlJsh_Cb7lD-28" value="&lt;p style=&quot;border-color: var(--border-color);&quot; class=&quot;MsoNormal&quot;&gt;Practical&amp;nbsp;&lt;br&gt;&lt;/p&gt;" style="rounded=0;whiteSpace=wrap;html=1;align=center;" parent="1" vertex="1">
          <mxGeometry x="1020" y="265" width="110" height="60" as="geometry" />
        </mxCell>
        <mxCell id="DnQ4--VGCIlJsh_Cb7lD-29" value="Academic&amp;nbsp;" style="rounded=0;whiteSpace=wrap;html=1;" parent="1" vertex="1">
          <mxGeometry x="1300" y="265" width="120" height="60" as="geometry" />
        </mxCell>
        <mxCell id="DnQ4--VGCIlJsh_Cb7lD-30" value="is" style="rhombus;whiteSpace=wrap;html=1;" parent="1" vertex="1">
          <mxGeometry x="1145" y="155" width="169" height="80" as="geometry" />
        </mxCell>
        <mxCell id="DnQ4--VGCIlJsh_Cb7lD-31" value="" style="endArrow=none;html=1;rounded=0;entryX=0.5;entryY=1;entryDx=0;entryDy=0;exitX=0.5;exitY=0;exitDx=0;exitDy=0;" parent="1" source="DnQ4--VGCIlJsh_Cb7lD-28" target="DnQ4--VGCIlJsh_Cb7lD-30" edge="1">
          <mxGeometry width="50" height="50" relative="1" as="geometry">
            <mxPoint x="1129" y="515" as="sourcePoint" />
            <mxPoint x="1179" y="465" as="targetPoint" />
          </mxGeometry>
        </mxCell>
        <mxCell id="DnQ4--VGCIlJsh_Cb7lD-32" value="" style="endArrow=none;html=1;rounded=0;entryX=0.5;entryY=1;entryDx=0;entryDy=0;exitX=0.5;exitY=0;exitDx=0;exitDy=0;" parent="1" source="DnQ4--VGCIlJsh_Cb7lD-29" target="DnQ4--VGCIlJsh_Cb7lD-30" edge="1">
          <mxGeometry width="50" height="50" relative="1" as="geometry">
            <mxPoint x="1129" y="285" as="sourcePoint" />
            <mxPoint x="1224" y="245" as="targetPoint" />
          </mxGeometry>
        </mxCell>
        <mxCell id="DnQ4--VGCIlJsh_Cb7lD-33" value="" style="endArrow=none;html=1;rounded=0;exitX=0.5;exitY=0;exitDx=0;exitDy=0;" parent="1" source="DnQ4--VGCIlJsh_Cb7lD-38" edge="1">
          <mxGeometry width="50" height="50" relative="1" as="geometry">
            <mxPoint x="1310" y="365" as="sourcePoint" />
            <mxPoint x="1355" y="325" as="targetPoint" />
          </mxGeometry>
        </mxCell>
        <mxCell id="DnQ4--VGCIlJsh_Cb7lD-34" value="" style="endArrow=none;html=1;rounded=0;exitX=0.474;exitY=0.029;exitDx=0;exitDy=0;exitPerimeter=0;" parent="1" source="DnQ4--VGCIlJsh_Cb7lD-37" edge="1">
          <mxGeometry width="50" height="50" relative="1" as="geometry">
            <mxPoint x="1410" y="365" as="sourcePoint" />
            <mxPoint x="1355" y="325" as="targetPoint" />
          </mxGeometry>
        </mxCell>
        <mxCell id="DnQ4--VGCIlJsh_Cb7lD-35" value="" style="endArrow=none;html=1;rounded=0;entryX=0.5;entryY=1;entryDx=0;entryDy=0;exitX=0.5;exitY=0;exitDx=0;exitDy=0;" parent="1" source="DnQ4--VGCIlJsh_Cb7lD-40" edge="1">
          <mxGeometry width="50" height="50" relative="1" as="geometry">
            <mxPoint x="1010" y="365" as="sourcePoint" />
            <mxPoint x="1055" y="325" as="targetPoint" />
          </mxGeometry>
        </mxCell>
        <mxCell id="DnQ4--VGCIlJsh_Cb7lD-36" value="" style="endArrow=none;html=1;rounded=0;exitX=0.424;exitY=-0.012;exitDx=0;exitDy=0;exitPerimeter=0;" parent="1" source="DnQ4--VGCIlJsh_Cb7lD-39" edge="1">
          <mxGeometry width="50" height="50" relative="1" as="geometry">
            <mxPoint x="1110" y="365" as="sourcePoint" />
            <mxPoint x="1055" y="325" as="targetPoint" />
          </mxGeometry>
        </mxCell>
        <mxCell id="DnQ4--VGCIlJsh_Cb7lD-37" value="research centers&amp;nbsp;" style="rounded=0;whiteSpace=wrap;html=1;" parent="1" vertex="1">
          <mxGeometry x="1385" y="365" width="90" height="60" as="geometry" />
        </mxCell>
        <mxCell id="DnQ4--VGCIlJsh_Cb7lD-38" value="Universities" style="rounded=0;whiteSpace=wrap;html=1;" parent="1" vertex="1">
          <mxGeometry x="1265" y="365" width="90" height="60" as="geometry" />
        </mxCell>
        <mxCell id="DnQ4--VGCIlJsh_Cb7lD-39" value="&lt;p class=&quot;MsoNormal&quot;&gt;N GOV org&lt;/p&gt;" style="rounded=0;whiteSpace=wrap;html=1;" parent="1" vertex="1">
          <mxGeometry x="1075" y="365" width="90" height="60" as="geometry" />
        </mxCell>
        <mxCell id="DnQ4--VGCIlJsh_Cb7lD-40" value="GOV org" style="rounded=0;whiteSpace=wrap;html=1;" parent="1" vertex="1">
          <mxGeometry x="955" y="365" width="90" height="60" as="geometry" />
        </mxCell>
        <mxCell id="DnQ4--VGCIlJsh_Cb7lD-41" value="Research activity" style="rounded=0;whiteSpace=wrap;html=1;" parent="1" vertex="1">
          <mxGeometry x="345" y="450" width="160" height="80" as="geometry" />
        </mxCell>
        <mxCell id="DnQ4--VGCIlJsh_Cb7lD-43" value="" style="endArrow=none;html=1;rounded=0;entryX=0.5;entryY=1;entryDx=0;entryDy=0;exitX=0.5;exitY=0;exitDx=0;exitDy=0;" parent="1" source="DnQ4--VGCIlJsh_Cb7lD-30" target="DnQ4--VGCIlJsh_Cb7lD-5" edge="1">
          <mxGeometry width="50" height="50" relative="1" as="geometry">
            <mxPoint x="455" y="155" as="sourcePoint" />
            <mxPoint x="455" y="130" as="targetPoint" />
          </mxGeometry>
        </mxCell>
        <mxCell id="DnQ4--VGCIlJsh_Cb7lD-44" value="Information related&lt;br/&gt;to the specialized field" style="ellipse;whiteSpace=wrap;html=1;" parent="1" vertex="1">
          <mxGeometry x="80" y="370" width="135" height="80" as="geometry" />
        </mxCell>
        <mxCell id="DnQ4--VGCIlJsh_Cb7lD-45" value="" style="endArrow=none;html=1;rounded=0;entryX=1;entryY=0.5;entryDx=0;entryDy=0;exitX=0.5;exitY=0;exitDx=0;exitDy=0;" parent="1" source="DnQ4--VGCIlJsh_Cb7lD-41" target="DnQ4--VGCIlJsh_Cb7lD-44" edge="1">
          <mxGeometry width="50" height="50" relative="1" as="geometry">
            <mxPoint x="395" y="570" as="sourcePoint" />
            <mxPoint x="445" y="520" as="targetPoint" />
          </mxGeometry>
        </mxCell>
        <mxCell id="DnQ4--VGCIlJsh_Cb7lD-46" value="sponsors List&lt;span dir=&quot;RTL&quot;&gt;&lt;/span&gt;&lt;span dir=&quot;RTL&quot;&gt;&lt;/span&gt;&lt;span style=&quot;font-size:11.0pt;&lt;br/&gt;line-height:107%;font-family:&amp;quot;Arial&amp;quot;,sans-serif;mso-ascii-font-family:Calibri;&lt;br/&gt;mso-ascii-theme-font:minor-latin;mso-fareast-font-family:Calibri;mso-fareast-theme-font:&lt;br/&gt;minor-latin;mso-hansi-font-family:Calibri;mso-hansi-theme-font:minor-latin;&lt;br/&gt;mso-ansi-language:EN-US;mso-fareast-language:EN-US;mso-bidi-language:AR-SA&quot; dir=&quot;RTL&quot;&gt;&lt;span dir=&quot;RTL&quot;&gt;&lt;/span&gt;&lt;span dir=&quot;RTL&quot;&gt;&lt;/span&gt;&lt;/span&gt;" style="ellipse;whiteSpace=wrap;html=1;" parent="1" vertex="1">
          <mxGeometry x="590" y="260" width="120" height="80" as="geometry" />
        </mxCell>
        <mxCell id="DnQ4--VGCIlJsh_Cb7lD-47" value="" style="endArrow=none;html=1;rounded=0;entryX=0.5;entryY=1;entryDx=0;entryDy=0;exitX=0.5;exitY=0;exitDx=0;exitDy=0;" parent="1" source="DnQ4--VGCIlJsh_Cb7lD-41" target="DnQ4--VGCIlJsh_Cb7lD-46" edge="1">
          <mxGeometry width="50" height="50" relative="1" as="geometry">
            <mxPoint x="435" y="460" as="sourcePoint" />
            <mxPoint x="455" y="530" as="targetPoint" />
          </mxGeometry>
        </mxCell>
        <mxCell id="DnQ4--VGCIlJsh_Cb7lD-48" value="execution level (Domestic&lt;br/&gt;or international)&amp;nbsp;" style="ellipse;whiteSpace=wrap;html=1;" parent="1" vertex="1">
          <mxGeometry x="445" y="260" width="120" height="80" as="geometry" />
        </mxCell>
        <mxCell id="DnQ4--VGCIlJsh_Cb7lD-49" value="" style="endArrow=none;html=1;rounded=0;entryX=0.5;entryY=1;entryDx=0;entryDy=0;exitX=0.5;exitY=0;exitDx=0;exitDy=0;" parent="1" source="DnQ4--VGCIlJsh_Cb7lD-41" target="DnQ4--VGCIlJsh_Cb7lD-48" edge="1">
          <mxGeometry width="50" height="50" relative="1" as="geometry">
            <mxPoint x="445" y="470" as="sourcePoint" />
            <mxPoint x="465" y="540" as="targetPoint" />
          </mxGeometry>
        </mxCell>
        <mxCell id="DnQ4--VGCIlJsh_Cb7lD-50" value="&amp;nbsp;Type and amount of financial resources" style="ellipse;whiteSpace=wrap;html=1;" parent="1" vertex="1">
          <mxGeometry x="260" y="170" width="120" height="80" as="geometry" />
        </mxCell>
        <mxCell id="DnQ4--VGCIlJsh_Cb7lD-51" value="" style="endArrow=none;html=1;rounded=0;entryX=0.5;entryY=1;entryDx=0;entryDy=0;" parent="1" target="DnQ4--VGCIlJsh_Cb7lD-50" edge="1">
          <mxGeometry width="50" height="50" relative="1" as="geometry">
            <mxPoint x="425" y="450" as="sourcePoint" />
            <mxPoint x="475" y="550" as="targetPoint" />
          </mxGeometry>
        </mxCell>
        <mxCell id="DnQ4--VGCIlJsh_Cb7lD-52" value="&lt;pre style=&quot;text-align:right;line-height:27.0pt&quot;&gt;Start and end time&lt;i style=&quot;background-color: initial; font-family: Helvetica; text-align: center; white-space: normal;&quot;&gt;&lt;span style=&quot;font-size:9.0pt;font-family:&amp;quot;Times New Roman&amp;quot;,serif;mso-fareast-font-family:&lt;br/&gt;&amp;quot;Times New Roman&amp;quot;;color:#202124&quot;&gt;&amp;nbsp;&lt;/span&gt;&lt;/i&gt;&lt;/pre&gt;" style="ellipse;whiteSpace=wrap;html=1;" parent="1" vertex="1">
          <mxGeometry x="95" y="260" width="155" height="80" as="geometry" />
        </mxCell>
        <mxCell id="DnQ4--VGCIlJsh_Cb7lD-53" value="" style="endArrow=none;html=1;rounded=0;entryX=0.5;entryY=1;entryDx=0;entryDy=0;exitX=0.5;exitY=0;exitDx=0;exitDy=0;" parent="1" source="DnQ4--VGCIlJsh_Cb7lD-41" target="DnQ4--VGCIlJsh_Cb7lD-52" edge="1">
          <mxGeometry width="50" height="50" relative="1" as="geometry">
            <mxPoint x="605" y="452.5" as="sourcePoint" />
            <mxPoint x="625" y="522.5" as="targetPoint" />
          </mxGeometry>
        </mxCell>
        <mxCell id="DnQ4--VGCIlJsh_Cb7lD-54" value="" style="endArrow=none;html=1;rounded=0;entryX=0;entryY=1;entryDx=0;entryDy=0;" parent="1" target="DnQ4--VGCIlJsh_Cb7lD-55" edge="1">
          <mxGeometry width="50" height="50" relative="1" as="geometry">
            <mxPoint x="425" y="450" as="sourcePoint" />
            <mxPoint x="655" y="370" as="targetPoint" />
          </mxGeometry>
        </mxCell>
        <mxCell id="DnQ4--VGCIlJsh_Cb7lD-55" value="&amp;nbsp;executive offices’s information" style="ellipse;whiteSpace=wrap;html=1;" parent="1" vertex="1">
          <mxGeometry x="585" y="370" width="120" height="80" as="geometry" />
        </mxCell>
        <mxCell id="DnQ4--VGCIlJsh_Cb7lD-56" value="conference papers" style="rounded=0;whiteSpace=wrap;html=1;" parent="1" vertex="1">
          <mxGeometry x="245" y="1330" width="120" height="60" as="geometry" />
        </mxCell>
        <mxCell id="DnQ4--VGCIlJsh_Cb7lD-57" value="&lt;span style=&quot;font-size:11.0pt;&lt;br/&gt;line-height:107%;font-family:&amp;quot;Calibri&amp;quot;,sans-serif;mso-ascii-theme-font:minor-latin;&lt;br/&gt;mso-fareast-font-family:Calibri;mso-fareast-theme-font:minor-latin;mso-hansi-theme-font:&lt;br/&gt;minor-latin;mso-bidi-font-family:&amp;quot;2  Nazanin&amp;quot;;mso-ansi-language:EN-US;&lt;br/&gt;mso-fareast-language:EN-US;mso-bidi-language:AR-SA&quot;&gt;\page numbers&lt;/span&gt;" style="ellipse;whiteSpace=wrap;html=1;" parent="1" vertex="1">
          <mxGeometry x="40" y="1540" width="120" height="80" as="geometry" />
        </mxCell>
        <mxCell id="DnQ4--VGCIlJsh_Cb7lD-58" value="" style="endArrow=none;html=1;rounded=0;entryX=0.5;entryY=1;entryDx=0;entryDy=0;" parent="1" source="DnQ4--VGCIlJsh_Cb7lD-57" target="DnQ4--VGCIlJsh_Cb7lD-56" edge="1">
          <mxGeometry width="50" height="50" relative="1" as="geometry">
            <mxPoint x="45" y="1410" as="sourcePoint" />
            <mxPoint x="95" y="1360" as="targetPoint" />
          </mxGeometry>
        </mxCell>
        <mxCell id="DnQ4--VGCIlJsh_Cb7lD-59" value="Academic" style="ellipse;whiteSpace=wrap;html=1;" parent="1" vertex="1">
          <mxGeometry x="455" y="1360" width="120" height="80" as="geometry" />
        </mxCell>
        <mxCell id="DnQ4--VGCIlJsh_Cb7lD-60" value="" style="endArrow=none;html=1;rounded=0;entryX=0.5;entryY=1;entryDx=0;entryDy=0;" parent="1" source="DnQ4--VGCIlJsh_Cb7lD-59" target="DnQ4--VGCIlJsh_Cb7lD-56" edge="1">
          <mxGeometry width="50" height="50" relative="1" as="geometry">
            <mxPoint x="185" y="1410" as="sourcePoint" />
            <mxPoint x="445" y="1380" as="targetPoint" />
          </mxGeometry>
        </mxCell>
        <mxCell id="DnQ4--VGCIlJsh_Cb7lD-61" value="executive" style="ellipse;whiteSpace=wrap;html=1;" parent="1" vertex="1">
          <mxGeometry x="455" y="1450" width="120" height="80" as="geometry" />
        </mxCell>
        <mxCell id="DnQ4--VGCIlJsh_Cb7lD-62" value="" style="endArrow=none;html=1;rounded=0;entryX=0.5;entryY=1;entryDx=0;entryDy=0;" parent="1" source="DnQ4--VGCIlJsh_Cb7lD-61" target="DnQ4--VGCIlJsh_Cb7lD-56" edge="1">
          <mxGeometry width="50" height="50" relative="1" as="geometry">
            <mxPoint x="65" y="1430" as="sourcePoint" />
            <mxPoint x="325" y="1400" as="targetPoint" />
            <Array as="points">
              <mxPoint x="365" y="1420" />
            </Array>
          </mxGeometry>
        </mxCell>
        <mxCell id="DnQ4--VGCIlJsh_Cb7lD-63" value="Date of admission" style="ellipse;whiteSpace=wrap;html=1;" parent="1" vertex="1">
          <mxGeometry x="40" y="1450" width="120" height="80" as="geometry" />
        </mxCell>
        <mxCell id="DnQ4--VGCIlJsh_Cb7lD-64" value="" style="endArrow=none;html=1;rounded=0;entryX=0.5;entryY=1;entryDx=0;entryDy=0;" parent="1" source="DnQ4--VGCIlJsh_Cb7lD-63" target="DnQ4--VGCIlJsh_Cb7lD-56" edge="1">
          <mxGeometry width="50" height="50" relative="1" as="geometry">
            <mxPoint x="75" y="1440" as="sourcePoint" />
            <mxPoint x="335" y="1410" as="targetPoint" />
            <Array as="points">
              <mxPoint x="235" y="1420" />
            </Array>
          </mxGeometry>
        </mxCell>
        <mxCell id="DnQ4--VGCIlJsh_Cb7lD-65" value="&lt;span style=&quot;font-size:11.0pt;&lt;br/&gt;line-height:107%;font-family:&amp;quot;Calibri&amp;quot;,sans-serif;mso-ascii-theme-font:minor-latin;&lt;br/&gt;mso-fareast-font-family:Calibri;mso-fareast-theme-font:minor-latin;mso-hansi-theme-font:&lt;br/&gt;minor-latin;mso-bidi-font-family:&amp;quot;2  Nazanin&amp;quot;;mso-ansi-language:EN-US;&lt;br/&gt;mso-fareast-language:EN-US;mso-bidi-language:AR-SA&quot;&gt;shipping time&lt;/span&gt;" style="ellipse;whiteSpace=wrap;html=1;" parent="1" vertex="1">
          <mxGeometry x="40" y="1360" width="120" height="80" as="geometry" />
        </mxCell>
        <mxCell id="DnQ4--VGCIlJsh_Cb7lD-66" value="" style="endArrow=none;html=1;rounded=0;entryX=0.5;entryY=1;entryDx=0;entryDy=0;" parent="1" source="DnQ4--VGCIlJsh_Cb7lD-65" target="DnQ4--VGCIlJsh_Cb7lD-56" edge="1">
          <mxGeometry width="50" height="50" relative="1" as="geometry">
            <mxPoint x="-100" y="1410" as="sourcePoint" />
            <mxPoint x="160" y="1380" as="targetPoint" />
          </mxGeometry>
        </mxCell>
        <mxCell id="DnQ4--VGCIlJsh_Cb7lD-67" value="Reviewers" style="ellipse;whiteSpace=wrap;html=1;" parent="1" vertex="1">
          <mxGeometry x="455" y="1540" width="120" height="80" as="geometry" />
        </mxCell>
        <mxCell id="DnQ4--VGCIlJsh_Cb7lD-68" value="" style="endArrow=none;html=1;rounded=0;entryX=0.5;entryY=1;entryDx=0;entryDy=0;" parent="1" source="DnQ4--VGCIlJsh_Cb7lD-67" target="DnQ4--VGCIlJsh_Cb7lD-56" edge="1">
          <mxGeometry width="50" height="50" relative="1" as="geometry">
            <mxPoint x="95" y="1460" as="sourcePoint" />
            <mxPoint x="305" y="1440" as="targetPoint" />
          </mxGeometry>
        </mxCell>
        <mxCell id="DnQ4--VGCIlJsh_Cb7lD-69" value="sponsors" style="ellipse;whiteSpace=wrap;html=1;" parent="1" vertex="1">
          <mxGeometry x="315" y="1540" width="120" height="80" as="geometry" />
        </mxCell>
        <mxCell id="DnQ4--VGCIlJsh_Cb7lD-70" value="" style="endArrow=none;html=1;rounded=0;entryX=0.5;entryY=1;entryDx=0;entryDy=0;" parent="1" source="DnQ4--VGCIlJsh_Cb7lD-69" target="DnQ4--VGCIlJsh_Cb7lD-56" edge="1">
          <mxGeometry width="50" height="50" relative="1" as="geometry">
            <mxPoint x="105" y="1470" as="sourcePoint" />
            <mxPoint x="365" y="1440" as="targetPoint" />
          </mxGeometry>
        </mxCell>
        <mxCell id="DnQ4--VGCIlJsh_Cb7lD-71" value="budget" style="ellipse;whiteSpace=wrap;html=1;" parent="1" vertex="1">
          <mxGeometry x="180" y="1540" width="120" height="80" as="geometry" />
        </mxCell>
        <mxCell id="DnQ4--VGCIlJsh_Cb7lD-72" value="" style="endArrow=none;html=1;rounded=0;entryX=0.5;entryY=1;entryDx=0;entryDy=0;" parent="1" source="DnQ4--VGCIlJsh_Cb7lD-71" target="DnQ4--VGCIlJsh_Cb7lD-56" edge="1">
          <mxGeometry width="50" height="50" relative="1" as="geometry">
            <mxPoint x="-5" y="1510" as="sourcePoint" />
            <mxPoint x="255" y="1480" as="targetPoint" />
          </mxGeometry>
        </mxCell>
        <mxCell id="DnQ4--VGCIlJsh_Cb7lD-73" value="workshops" style="rounded=0;whiteSpace=wrap;html=1;" parent="1" vertex="1">
          <mxGeometry x="1450" y="1330" width="120" height="60" as="geometry" />
        </mxCell>
        <mxCell id="DnQ4--VGCIlJsh_Cb7lD-74" value="&lt;span style=&quot;font-size:11.0pt;&lt;br/&gt;line-height:107%;font-family:&amp;quot;Calibri&amp;quot;,sans-serif;mso-ascii-theme-font:minor-latin;&lt;br/&gt;mso-fareast-font-family:Calibri;mso-fareast-theme-font:minor-latin;mso-hansi-theme-font:&lt;br/&gt;minor-latin;mso-bidi-font-family:&amp;quot;2  Nazanin&amp;quot;;mso-ansi-language:EN-US;&lt;br/&gt;mso-fareast-language:EN-US;mso-bidi-language:AR-SA&quot;&gt;page numbers&lt;/span&gt;" style="ellipse;whiteSpace=wrap;html=1;" parent="1" vertex="1">
          <mxGeometry x="1245" y="1540" width="120" height="80" as="geometry" />
        </mxCell>
        <mxCell id="DnQ4--VGCIlJsh_Cb7lD-75" value="" style="endArrow=none;html=1;rounded=0;entryX=0.5;entryY=1;entryDx=0;entryDy=0;" parent="1" source="DnQ4--VGCIlJsh_Cb7lD-74" target="DnQ4--VGCIlJsh_Cb7lD-73" edge="1">
          <mxGeometry width="50" height="50" relative="1" as="geometry">
            <mxPoint x="1250" y="1410" as="sourcePoint" />
            <mxPoint x="1300" y="1360" as="targetPoint" />
          </mxGeometry>
        </mxCell>
        <mxCell id="DnQ4--VGCIlJsh_Cb7lD-76" value="Academic" style="ellipse;whiteSpace=wrap;html=1;" parent="1" vertex="1">
          <mxGeometry x="1660" y="1360" width="120" height="80" as="geometry" />
        </mxCell>
        <mxCell id="DnQ4--VGCIlJsh_Cb7lD-77" value="" style="endArrow=none;html=1;rounded=0;entryX=0.5;entryY=1;entryDx=0;entryDy=0;" parent="1" source="DnQ4--VGCIlJsh_Cb7lD-76" target="DnQ4--VGCIlJsh_Cb7lD-73" edge="1">
          <mxGeometry width="50" height="50" relative="1" as="geometry">
            <mxPoint x="1390" y="1410" as="sourcePoint" />
            <mxPoint x="1650" y="1380" as="targetPoint" />
          </mxGeometry>
        </mxCell>
        <mxCell id="DnQ4--VGCIlJsh_Cb7lD-78" value="executive" style="ellipse;whiteSpace=wrap;html=1;" parent="1" vertex="1">
          <mxGeometry x="1660" y="1450" width="120" height="80" as="geometry" />
        </mxCell>
        <mxCell id="DnQ4--VGCIlJsh_Cb7lD-79" value="" style="endArrow=none;html=1;rounded=0;entryX=0.5;entryY=1;entryDx=0;entryDy=0;" parent="1" source="DnQ4--VGCIlJsh_Cb7lD-78" target="DnQ4--VGCIlJsh_Cb7lD-73" edge="1">
          <mxGeometry width="50" height="50" relative="1" as="geometry">
            <mxPoint x="1270" y="1430" as="sourcePoint" />
            <mxPoint x="1530" y="1400" as="targetPoint" />
            <Array as="points">
              <mxPoint x="1570" y="1420" />
            </Array>
          </mxGeometry>
        </mxCell>
        <mxCell id="DnQ4--VGCIlJsh_Cb7lD-80" value="Date of admission" style="ellipse;whiteSpace=wrap;html=1;" parent="1" vertex="1">
          <mxGeometry x="1245" y="1450" width="120" height="80" as="geometry" />
        </mxCell>
        <mxCell id="DnQ4--VGCIlJsh_Cb7lD-81" value="" style="endArrow=none;html=1;rounded=0;entryX=0.5;entryY=1;entryDx=0;entryDy=0;" parent="1" source="DnQ4--VGCIlJsh_Cb7lD-80" target="DnQ4--VGCIlJsh_Cb7lD-73" edge="1">
          <mxGeometry width="50" height="50" relative="1" as="geometry">
            <mxPoint x="1280" y="1440" as="sourcePoint" />
            <mxPoint x="1540" y="1410" as="targetPoint" />
            <Array as="points">
              <mxPoint x="1440" y="1420" />
            </Array>
          </mxGeometry>
        </mxCell>
        <mxCell id="DnQ4--VGCIlJsh_Cb7lD-82" value="&lt;span style=&quot;font-size:11.0pt;&lt;br/&gt;line-height:107%;font-family:&amp;quot;Calibri&amp;quot;,sans-serif;mso-ascii-theme-font:minor-latin;&lt;br/&gt;mso-fareast-font-family:Calibri;mso-fareast-theme-font:minor-latin;mso-hansi-theme-font:&lt;br/&gt;minor-latin;mso-bidi-font-family:&amp;quot;2  Nazanin&amp;quot;;mso-ansi-language:EN-US;&lt;br/&gt;mso-fareast-language:EN-US;mso-bidi-language:AR-SA&quot;&gt;shipping time&lt;/span&gt;" style="ellipse;whiteSpace=wrap;html=1;" parent="1" vertex="1">
          <mxGeometry x="1245" y="1360" width="120" height="80" as="geometry" />
        </mxCell>
        <mxCell id="DnQ4--VGCIlJsh_Cb7lD-83" value="" style="endArrow=none;html=1;rounded=0;entryX=0.5;entryY=1;entryDx=0;entryDy=0;" parent="1" source="DnQ4--VGCIlJsh_Cb7lD-82" target="DnQ4--VGCIlJsh_Cb7lD-73" edge="1">
          <mxGeometry width="50" height="50" relative="1" as="geometry">
            <mxPoint x="1105" y="1410" as="sourcePoint" />
            <mxPoint x="1365" y="1380" as="targetPoint" />
          </mxGeometry>
        </mxCell>
        <mxCell id="DnQ4--VGCIlJsh_Cb7lD-84" value="Reviewers" style="ellipse;whiteSpace=wrap;html=1;" parent="1" vertex="1">
          <mxGeometry x="1660" y="1540" width="120" height="80" as="geometry" />
        </mxCell>
        <mxCell id="DnQ4--VGCIlJsh_Cb7lD-85" value="" style="endArrow=none;html=1;rounded=0;entryX=0.5;entryY=1;entryDx=0;entryDy=0;" parent="1" source="DnQ4--VGCIlJsh_Cb7lD-84" target="DnQ4--VGCIlJsh_Cb7lD-73" edge="1">
          <mxGeometry width="50" height="50" relative="1" as="geometry">
            <mxPoint x="1300" y="1460" as="sourcePoint" />
            <mxPoint x="1510" y="1440" as="targetPoint" />
          </mxGeometry>
        </mxCell>
        <mxCell id="DnQ4--VGCIlJsh_Cb7lD-86" value="sponsors" style="ellipse;whiteSpace=wrap;html=1;" parent="1" vertex="1">
          <mxGeometry x="1660" y="1630" width="120" height="80" as="geometry" />
        </mxCell>
        <mxCell id="DnQ4--VGCIlJsh_Cb7lD-87" value="" style="endArrow=none;html=1;rounded=0;entryX=0.5;entryY=1;entryDx=0;entryDy=0;exitX=0;exitY=0;exitDx=0;exitDy=0;" parent="1" source="DnQ4--VGCIlJsh_Cb7lD-86" target="DnQ4--VGCIlJsh_Cb7lD-73" edge="1">
          <mxGeometry width="50" height="50" relative="1" as="geometry">
            <mxPoint x="1693" y="1634" as="sourcePoint" />
            <mxPoint x="1570" y="1440" as="targetPoint" />
          </mxGeometry>
        </mxCell>
        <mxCell id="DnQ4--VGCIlJsh_Cb7lD-88" value="budget" style="ellipse;whiteSpace=wrap;html=1;" parent="1" vertex="1">
          <mxGeometry x="1245" y="1630" width="120" height="80" as="geometry" />
        </mxCell>
        <mxCell id="DnQ4--VGCIlJsh_Cb7lD-89" value="" style="endArrow=none;html=1;rounded=0;entryX=0.5;entryY=1;entryDx=0;entryDy=0;exitX=1;exitY=0;exitDx=0;exitDy=0;" parent="1" source="DnQ4--VGCIlJsh_Cb7lD-88" target="DnQ4--VGCIlJsh_Cb7lD-73" edge="1">
          <mxGeometry width="50" height="50" relative="1" as="geometry">
            <mxPoint x="1200" y="1510" as="sourcePoint" />
            <mxPoint x="1460" y="1480" as="targetPoint" />
          </mxGeometry>
        </mxCell>
        <mxCell id="DnQ4--VGCIlJsh_Cb7lD-90" value="place" style="ellipse;whiteSpace=wrap;html=1;" parent="1" vertex="1">
          <mxGeometry x="1385" y="1630" width="120" height="80" as="geometry" />
        </mxCell>
        <mxCell id="DnQ4--VGCIlJsh_Cb7lD-91" value="" style="endArrow=none;html=1;rounded=0;entryX=0.5;entryY=1;entryDx=0;entryDy=0;exitX=0.5;exitY=0;exitDx=0;exitDy=0;" parent="1" source="DnQ4--VGCIlJsh_Cb7lD-90" target="DnQ4--VGCIlJsh_Cb7lD-73" edge="1">
          <mxGeometry width="50" height="50" relative="1" as="geometry">
            <mxPoint x="1210" y="1520" as="sourcePoint" />
            <mxPoint x="1520" y="1400" as="targetPoint" />
          </mxGeometry>
        </mxCell>
        <mxCell id="DnQ4--VGCIlJsh_Cb7lD-92" value="Time" style="ellipse;whiteSpace=wrap;html=1;" parent="1" vertex="1">
          <mxGeometry x="1515" y="1630" width="120" height="80" as="geometry" />
        </mxCell>
        <mxCell id="DnQ4--VGCIlJsh_Cb7lD-93" value="" style="endArrow=none;html=1;rounded=0;entryX=0.5;entryY=1;entryDx=0;entryDy=0;exitX=0.5;exitY=0;exitDx=0;exitDy=0;" parent="1" source="DnQ4--VGCIlJsh_Cb7lD-92" target="DnQ4--VGCIlJsh_Cb7lD-73" edge="1">
          <mxGeometry width="50" height="50" relative="1" as="geometry">
            <mxPoint x="1470" y="1510" as="sourcePoint" />
            <mxPoint x="1780" y="1390" as="targetPoint" />
          </mxGeometry>
        </mxCell>
        <mxCell id="DnQ4--VGCIlJsh_Cb7lD-94" value="internal papers&amp;nbsp;" style="rounded=0;whiteSpace=wrap;html=1;" parent="1" vertex="1">
          <mxGeometry x="850" y="1330" width="120" height="60" as="geometry" />
        </mxCell>
        <mxCell id="DnQ4--VGCIlJsh_Cb7lD-95" value="&lt;span style=&quot;font-size:11.0pt;&lt;br/&gt;line-height:107%;font-family:&amp;quot;Calibri&amp;quot;,sans-serif;mso-ascii-theme-font:minor-latin;&lt;br/&gt;mso-fareast-font-family:Calibri;mso-fareast-theme-font:minor-latin;mso-hansi-theme-font:&lt;br/&gt;minor-latin;mso-bidi-font-family:&amp;quot;2  Nazanin&amp;quot;;mso-ansi-language:EN-US;&lt;br/&gt;mso-fareast-language:EN-US;mso-bidi-language:AR-SA&quot;&gt;page numbers&lt;/span&gt;" style="ellipse;whiteSpace=wrap;html=1;" parent="1" vertex="1">
          <mxGeometry x="645" y="1540" width="120" height="80" as="geometry" />
        </mxCell>
        <mxCell id="DnQ4--VGCIlJsh_Cb7lD-96" value="" style="endArrow=none;html=1;rounded=0;entryX=0.5;entryY=1;entryDx=0;entryDy=0;" parent="1" source="DnQ4--VGCIlJsh_Cb7lD-95" target="DnQ4--VGCIlJsh_Cb7lD-94" edge="1">
          <mxGeometry width="50" height="50" relative="1" as="geometry">
            <mxPoint x="650" y="1410" as="sourcePoint" />
            <mxPoint x="700" y="1360" as="targetPoint" />
          </mxGeometry>
        </mxCell>
        <mxCell id="DnQ4--VGCIlJsh_Cb7lD-97" value="Academic" style="ellipse;whiteSpace=wrap;html=1;" parent="1" vertex="1">
          <mxGeometry x="1060" y="1360" width="120" height="80" as="geometry" />
        </mxCell>
        <mxCell id="DnQ4--VGCIlJsh_Cb7lD-98" value="" style="endArrow=none;html=1;rounded=0;entryX=0.5;entryY=1;entryDx=0;entryDy=0;" parent="1" source="DnQ4--VGCIlJsh_Cb7lD-97" target="DnQ4--VGCIlJsh_Cb7lD-94" edge="1">
          <mxGeometry width="50" height="50" relative="1" as="geometry">
            <mxPoint x="790" y="1410" as="sourcePoint" />
            <mxPoint x="1050" y="1380" as="targetPoint" />
          </mxGeometry>
        </mxCell>
        <mxCell id="DnQ4--VGCIlJsh_Cb7lD-99" value="executive" style="ellipse;whiteSpace=wrap;html=1;" parent="1" vertex="1">
          <mxGeometry x="1060" y="1450" width="120" height="80" as="geometry" />
        </mxCell>
        <mxCell id="DnQ4--VGCIlJsh_Cb7lD-100" value="" style="endArrow=none;html=1;rounded=0;entryX=0.5;entryY=1;entryDx=0;entryDy=0;" parent="1" source="DnQ4--VGCIlJsh_Cb7lD-99" target="DnQ4--VGCIlJsh_Cb7lD-94" edge="1">
          <mxGeometry width="50" height="50" relative="1" as="geometry">
            <mxPoint x="670" y="1430" as="sourcePoint" />
            <mxPoint x="930" y="1400" as="targetPoint" />
            <Array as="points">
              <mxPoint x="970" y="1420" />
            </Array>
          </mxGeometry>
        </mxCell>
        <mxCell id="DnQ4--VGCIlJsh_Cb7lD-101" value="Date of admission" style="ellipse;whiteSpace=wrap;html=1;" parent="1" vertex="1">
          <mxGeometry x="645" y="1450" width="120" height="80" as="geometry" />
        </mxCell>
        <mxCell id="DnQ4--VGCIlJsh_Cb7lD-102" value="" style="endArrow=none;html=1;rounded=0;entryX=0.5;entryY=1;entryDx=0;entryDy=0;" parent="1" source="DnQ4--VGCIlJsh_Cb7lD-101" target="DnQ4--VGCIlJsh_Cb7lD-94" edge="1">
          <mxGeometry width="50" height="50" relative="1" as="geometry">
            <mxPoint x="680" y="1440" as="sourcePoint" />
            <mxPoint x="940" y="1410" as="targetPoint" />
            <Array as="points">
              <mxPoint x="840" y="1420" />
            </Array>
          </mxGeometry>
        </mxCell>
        <mxCell id="DnQ4--VGCIlJsh_Cb7lD-103" value="&lt;span style=&quot;font-size:11.0pt;&lt;br/&gt;line-height:107%;font-family:&amp;quot;Calibri&amp;quot;,sans-serif;mso-ascii-theme-font:minor-latin;&lt;br/&gt;mso-fareast-font-family:Calibri;mso-fareast-theme-font:minor-latin;mso-hansi-theme-font:&lt;br/&gt;minor-latin;mso-bidi-font-family:&amp;quot;2  Nazanin&amp;quot;;mso-ansi-language:EN-US;&lt;br/&gt;mso-fareast-language:EN-US;mso-bidi-language:AR-SA&quot;&gt;shipping time&lt;/span&gt;" style="ellipse;whiteSpace=wrap;html=1;" parent="1" vertex="1">
          <mxGeometry x="645" y="1360" width="120" height="80" as="geometry" />
        </mxCell>
        <mxCell id="DnQ4--VGCIlJsh_Cb7lD-104" value="" style="endArrow=none;html=1;rounded=0;entryX=0.5;entryY=1;entryDx=0;entryDy=0;" parent="1" source="DnQ4--VGCIlJsh_Cb7lD-103" target="DnQ4--VGCIlJsh_Cb7lD-94" edge="1">
          <mxGeometry width="50" height="50" relative="1" as="geometry">
            <mxPoint x="505" y="1410" as="sourcePoint" />
            <mxPoint x="765" y="1380" as="targetPoint" />
          </mxGeometry>
        </mxCell>
        <mxCell id="DnQ4--VGCIlJsh_Cb7lD-105" value="Reviewers" style="ellipse;whiteSpace=wrap;html=1;" parent="1" vertex="1">
          <mxGeometry x="1060" y="1540" width="120" height="80" as="geometry" />
        </mxCell>
        <mxCell id="DnQ4--VGCIlJsh_Cb7lD-106" value="" style="endArrow=none;html=1;rounded=0;entryX=0.5;entryY=1;entryDx=0;entryDy=0;" parent="1" source="DnQ4--VGCIlJsh_Cb7lD-105" target="DnQ4--VGCIlJsh_Cb7lD-94" edge="1">
          <mxGeometry width="50" height="50" relative="1" as="geometry">
            <mxPoint x="700" y="1460" as="sourcePoint" />
            <mxPoint x="910" y="1440" as="targetPoint" />
          </mxGeometry>
        </mxCell>
        <mxCell id="DnQ4--VGCIlJsh_Cb7lD-107" value="sponsors" style="ellipse;whiteSpace=wrap;html=1;" parent="1" vertex="1">
          <mxGeometry x="1060" y="1630" width="120" height="80" as="geometry" />
        </mxCell>
        <mxCell id="DnQ4--VGCIlJsh_Cb7lD-108" value="" style="endArrow=none;html=1;rounded=0;entryX=0.5;entryY=1;entryDx=0;entryDy=0;exitX=0;exitY=0;exitDx=0;exitDy=0;" parent="1" source="DnQ4--VGCIlJsh_Cb7lD-107" target="DnQ4--VGCIlJsh_Cb7lD-94" edge="1">
          <mxGeometry width="50" height="50" relative="1" as="geometry">
            <mxPoint x="1093" y="1634" as="sourcePoint" />
            <mxPoint x="970" y="1440" as="targetPoint" />
          </mxGeometry>
        </mxCell>
        <mxCell id="DnQ4--VGCIlJsh_Cb7lD-109" value="budget" style="ellipse;whiteSpace=wrap;html=1;" parent="1" vertex="1">
          <mxGeometry x="645" y="1630" width="120" height="80" as="geometry" />
        </mxCell>
        <mxCell id="DnQ4--VGCIlJsh_Cb7lD-110" value="" style="endArrow=none;html=1;rounded=0;entryX=0.5;entryY=1;entryDx=0;entryDy=0;exitX=1;exitY=0;exitDx=0;exitDy=0;" parent="1" source="DnQ4--VGCIlJsh_Cb7lD-109" target="DnQ4--VGCIlJsh_Cb7lD-94" edge="1">
          <mxGeometry width="50" height="50" relative="1" as="geometry">
            <mxPoint x="600" y="1510" as="sourcePoint" />
            <mxPoint x="860" y="1480" as="targetPoint" />
          </mxGeometry>
        </mxCell>
        <mxCell id="DnQ4--VGCIlJsh_Cb7lD-111" value="place" style="ellipse;whiteSpace=wrap;html=1;" parent="1" vertex="1">
          <mxGeometry x="785" y="1630" width="120" height="80" as="geometry" />
        </mxCell>
        <mxCell id="DnQ4--VGCIlJsh_Cb7lD-112" value="" style="endArrow=none;html=1;rounded=0;entryX=0.5;entryY=1;entryDx=0;entryDy=0;exitX=0.5;exitY=0;exitDx=0;exitDy=0;" parent="1" source="DnQ4--VGCIlJsh_Cb7lD-111" target="DnQ4--VGCIlJsh_Cb7lD-94" edge="1">
          <mxGeometry width="50" height="50" relative="1" as="geometry">
            <mxPoint x="610" y="1520" as="sourcePoint" />
            <mxPoint x="920" y="1400" as="targetPoint" />
          </mxGeometry>
        </mxCell>
        <mxCell id="DnQ4--VGCIlJsh_Cb7lD-113" value="Time" style="ellipse;whiteSpace=wrap;html=1;" parent="1" vertex="1">
          <mxGeometry x="915" y="1630" width="120" height="80" as="geometry" />
        </mxCell>
        <mxCell id="DnQ4--VGCIlJsh_Cb7lD-114" value="" style="endArrow=none;html=1;rounded=0;entryX=0.5;entryY=1;entryDx=0;entryDy=0;exitX=0.5;exitY=0;exitDx=0;exitDy=0;" parent="1" source="DnQ4--VGCIlJsh_Cb7lD-113" target="DnQ4--VGCIlJsh_Cb7lD-94" edge="1">
          <mxGeometry width="50" height="50" relative="1" as="geometry">
            <mxPoint x="870" y="1510" as="sourcePoint" />
            <mxPoint x="1180" y="1390" as="targetPoint" />
          </mxGeometry>
        </mxCell>
        <mxCell id="DnQ4--VGCIlJsh_Cb7lD-115" value="research equipment’s Informatio" style="ellipse;whiteSpace=wrap;html=1;" parent="1" vertex="1">
          <mxGeometry x="375" y="1920" width="120" height="80" as="geometry" />
        </mxCell>
        <mxCell id="DnQ4--VGCIlJsh_Cb7lD-116" value="&amp;nbsp;total wages," style="ellipse;whiteSpace=wrap;html=1;" parent="1" vertex="1">
          <mxGeometry x="55" y="1920" width="120" height="80" as="geometry" />
        </mxCell>
        <mxCell id="DnQ4--VGCIlJsh_Cb7lD-117" value="Case payments" style="ellipse;whiteSpace=wrap;html=1;" parent="1" vertex="1">
          <mxGeometry x="225" y="1920" width="120" height="80" as="geometry" />
        </mxCell>
        <mxCell id="DnQ4--VGCIlJsh_Cb7lD-118" value="" style="endArrow=none;html=1;rounded=0;entryX=0.5;entryY=1;entryDx=0;entryDy=0;exitX=0.5;exitY=0;exitDx=0;exitDy=0;" parent="1" source="DnQ4--VGCIlJsh_Cb7lD-115" target="DnQ4--VGCIlJsh_Cb7lD-6" edge="1">
          <mxGeometry width="50" height="50" relative="1" as="geometry">
            <mxPoint x="335" y="1910" as="sourcePoint" />
            <mxPoint x="285" y="1860" as="targetPoint" />
          </mxGeometry>
        </mxCell>
        <mxCell id="DnQ4--VGCIlJsh_Cb7lD-119" value="" style="endArrow=none;html=1;rounded=0;entryX=0.5;entryY=1;entryDx=0;entryDy=0;exitX=0.5;exitY=0;exitDx=0;exitDy=0;" parent="1" source="DnQ4--VGCIlJsh_Cb7lD-117" target="DnQ4--VGCIlJsh_Cb7lD-6" edge="1">
          <mxGeometry width="50" height="50" relative="1" as="geometry">
            <mxPoint x="445" y="1930" as="sourcePoint" />
            <mxPoint x="300" y="1870" as="targetPoint" />
          </mxGeometry>
        </mxCell>
        <mxCell id="DnQ4--VGCIlJsh_Cb7lD-120" value="" style="endArrow=none;html=1;rounded=0;entryX=0.5;entryY=1;entryDx=0;entryDy=0;exitX=0.5;exitY=0;exitDx=0;exitDy=0;" parent="1" source="DnQ4--VGCIlJsh_Cb7lD-116" target="DnQ4--VGCIlJsh_Cb7lD-6" edge="1">
          <mxGeometry width="50" height="50" relative="1" as="geometry">
            <mxPoint x="455" y="1940" as="sourcePoint" />
            <mxPoint x="310" y="1880" as="targetPoint" />
          </mxGeometry>
        </mxCell>
        <mxCell id="4cyTBoL2mbChuSqTaiiy-1" value="INTL / DOM" style="ellipse;whiteSpace=wrap;html=1;" vertex="1" parent="1">
          <mxGeometry x="620" y="480" width="90" height="60" as="geometry" />
        </mxCell>
        <mxCell id="4cyTBoL2mbChuSqTaiiy-2" value="" style="endArrow=none;html=1;rounded=0;entryX=0;entryY=0.5;entryDx=0;entryDy=0;exitX=1;exitY=0.5;exitDx=0;exitDy=0;" edge="1" parent="1" source="DnQ4--VGCIlJsh_Cb7lD-41" target="4cyTBoL2mbChuSqTaiiy-1">
          <mxGeometry width="50" height="50" relative="1" as="geometry">
            <mxPoint x="400" y="640" as="sourcePoint" />
            <mxPoint x="450" y="590" as="targetPoint" />
          </mxGeometry>
        </mxCell>
        <mxCell id="4cyTBoL2mbChuSqTaiiy-4" value="" style="endArrow=none;html=1;rounded=0;exitX=0.5;exitY=0;exitDx=0;exitDy=0;entryX=0.014;entryY=0.575;entryDx=0;entryDy=0;entryPerimeter=0;" edge="1" parent="1" source="DnQ4--VGCIlJsh_Cb7lD-4" target="4cyTBoL2mbChuSqTaiiy-3">
          <mxGeometry width="50" height="50" relative="1" as="geometry">
            <mxPoint x="530" y="675" as="sourcePoint" />
            <mxPoint x="425" y="530" as="targetPoint" />
          </mxGeometry>
        </mxCell>
        <mxCell id="4cyTBoL2mbChuSqTaiiy-3" value="Is A" style="triangle;rotation=-90;align=center;whiteSpace=wrap;html=1;portConstraintRotation=0;" vertex="1" parent="1">
          <mxGeometry x="386.25" y="543.75" width="77.5" height="90" as="geometry" />
        </mxCell>
        <mxCell id="4cyTBoL2mbChuSqTaiiy-8" value="researcher" style="rounded=0;whiteSpace=wrap;html=1;" vertex="1" parent="1">
          <mxGeometry x="1110" y="540" width="120" height="60" as="geometry" />
        </mxCell>
        <mxCell id="4cyTBoL2mbChuSqTaiiy-9" value="FName" style="ellipse;whiteSpace=wrap;html=1;" vertex="1" parent="1">
          <mxGeometry x="950" y="630" width="100" height="60" as="geometry" />
        </mxCell>
        <mxCell id="4cyTBoL2mbChuSqTaiiy-11" value="LName" style="ellipse;whiteSpace=wrap;html=1;" vertex="1" parent="1">
          <mxGeometry x="1075" y="660" width="100" height="60" as="geometry" />
        </mxCell>
        <mxCell id="4cyTBoL2mbChuSqTaiiy-13" value="Fund" style="rounded=0;whiteSpace=wrap;html=1;" vertex="1" parent="1">
          <mxGeometry x="820" y="790" width="80" height="50" as="geometry" />
        </mxCell>
        <mxCell id="4cyTBoL2mbChuSqTaiiy-14" value="&lt;div&gt;companies&lt;/div&gt;" style="ellipse;whiteSpace=wrap;html=1;" vertex="1" parent="1">
          <mxGeometry x="1010" y="835" width="90" height="55" as="geometry" />
        </mxCell>
        <mxCell id="4cyTBoL2mbChuSqTaiiy-15" value="Fund_ID" style="ellipse;whiteSpace=wrap;html=1;" vertex="1" parent="1">
          <mxGeometry x="610" y="835" width="90" height="60" as="geometry" />
        </mxCell>
        <mxCell id="4cyTBoL2mbChuSqTaiiy-16" value="Loan Value" style="ellipse;whiteSpace=wrap;html=1;" vertex="1" parent="1">
          <mxGeometry x="730" y="890" width="90" height="60" as="geometry" />
        </mxCell>
        <mxCell id="4cyTBoL2mbChuSqTaiiy-17" value="&lt;div&gt;Donation Value&lt;/div&gt;" style="ellipse;whiteSpace=wrap;html=1;" vertex="1" parent="1">
          <mxGeometry x="870" y="890" width="115" height="60" as="geometry" />
        </mxCell>
        <mxCell id="4cyTBoL2mbChuSqTaiiy-20" value="" style="endArrow=none;html=1;rounded=0;" edge="1" parent="1" source="4cyTBoL2mbChuSqTaiiy-15" target="4cyTBoL2mbChuSqTaiiy-13">
          <mxGeometry width="50" height="50" relative="1" as="geometry">
            <mxPoint x="710" y="910" as="sourcePoint" />
            <mxPoint x="760" y="860" as="targetPoint" />
          </mxGeometry>
        </mxCell>
        <mxCell id="4cyTBoL2mbChuSqTaiiy-21" value="" style="endArrow=none;html=1;rounded=0;" edge="1" parent="1" source="4cyTBoL2mbChuSqTaiiy-16" target="4cyTBoL2mbChuSqTaiiy-13">
          <mxGeometry width="50" height="50" relative="1" as="geometry">
            <mxPoint x="780" y="890" as="sourcePoint" />
            <mxPoint x="830" y="840" as="targetPoint" />
          </mxGeometry>
        </mxCell>
        <mxCell id="4cyTBoL2mbChuSqTaiiy-22" value="" style="endArrow=none;html=1;rounded=0;" edge="1" parent="1" source="4cyTBoL2mbChuSqTaiiy-17" target="4cyTBoL2mbChuSqTaiiy-13">
          <mxGeometry width="50" height="50" relative="1" as="geometry">
            <mxPoint x="900" y="890" as="sourcePoint" />
            <mxPoint x="950" y="840" as="targetPoint" />
          </mxGeometry>
        </mxCell>
        <mxCell id="4cyTBoL2mbChuSqTaiiy-23" value="" style="endArrow=none;html=1;rounded=0;" edge="1" parent="1" source="4cyTBoL2mbChuSqTaiiy-13" target="4cyTBoL2mbChuSqTaiiy-14">
          <mxGeometry width="50" height="50" relative="1" as="geometry">
            <mxPoint x="1010" y="830" as="sourcePoint" />
            <mxPoint x="1060" y="780" as="targetPoint" />
          </mxGeometry>
        </mxCell>
        <mxCell id="4cyTBoL2mbChuSqTaiiy-24" value="" style="endArrow=none;html=1;rounded=0;" edge="1" parent="1" source="4cyTBoL2mbChuSqTaiiy-9" target="4cyTBoL2mbChuSqTaiiy-8">
          <mxGeometry width="50" height="50" relative="1" as="geometry">
            <mxPoint x="1010" y="660" as="sourcePoint" />
            <mxPoint x="1180" y="530" as="targetPoint" />
          </mxGeometry>
        </mxCell>
        <mxCell id="4cyTBoL2mbChuSqTaiiy-25" value="" style="endArrow=none;html=1;rounded=0;" edge="1" parent="1" source="4cyTBoL2mbChuSqTaiiy-11" target="4cyTBoL2mbChuSqTaiiy-8">
          <mxGeometry width="50" height="50" relative="1" as="geometry">
            <mxPoint x="1240" y="680" as="sourcePoint" />
            <mxPoint x="1290" y="630" as="targetPoint" />
          </mxGeometry>
        </mxCell>
        <mxCell id="4cyTBoL2mbChuSqTaiiy-26" value="&lt;div&gt;Reseacher_ID&lt;/div&gt;" style="ellipse;whiteSpace=wrap;html=1;" vertex="1" parent="1">
          <mxGeometry x="925" y="550" width="95" height="60" as="geometry" />
        </mxCell>
        <mxCell id="4cyTBoL2mbChuSqTaiiy-27" value="" style="endArrow=none;html=1;rounded=0;" edge="1" parent="1" source="4cyTBoL2mbChuSqTaiiy-26" target="4cyTBoL2mbChuSqTaiiy-8">
          <mxGeometry width="50" height="50" relative="1" as="geometry">
            <mxPoint x="1020" y="570" as="sourcePoint" />
            <mxPoint x="1070" y="520" as="targetPoint" />
          </mxGeometry>
        </mxCell>
        <mxCell id="4cyTBoL2mbChuSqTaiiy-28" value="" style="ellipse;whiteSpace=wrap;html=1;" vertex="1" parent="1">
          <mxGeometry x="1230" y="660" width="100" height="60" as="geometry" />
        </mxCell>
      </root>
    </mxGraphModel>
  </diagram>
</mxfile>
